<?xml version="1.0" encoding="UTF-8" standalone="no"?>
<!DOCTYPE svg PUBLIC "-//W3C//DTD SVG 1.1//EN" "http://www.w3.org/Graphics/SVG/1.1/DTD/svg11.dtd">
<svg width="100%" height="100%" viewBox="0 0 1024 1024" version="1.1" xmlns="http://www.w3.org/2000/svg"
     xml:space="preserve"
     style="fill-rule:evenodd;clip-rule:evenodd;stroke-linejoin:round;stroke-miterlimit:2;">
    <style>
        path {
            fill: black;
        }
        @media (prefers-color-scheme: dark) {
            path { fill: white; }
        }
    </style>
    <path d="M699.47,241.208C696.634,241.208 693.92,242.365 691.956,244.411L192.036,765.161C189.145,768.173 188.331,772.619 189.967,776.459C191.604,780.299 195.376,782.792 199.55,782.792L324.53,782.792C327.366,782.792 330.08,781.635 332.044,779.589L831.964,258.839C834.855,255.827 835.669,251.381 834.033,247.541C832.396,243.701 828.624,241.208 824.45,241.208L699.47,241.208Z"/>
    <path d="M582.004,258.839C584.895,255.827 585.709,251.381 584.073,247.541C582.436,243.701 578.664,241.208 574.49,241.208L449.51,241.208C446.674,241.208 443.96,242.365 441.996,244.411L192.036,504.786C189.145,507.798 188.331,512.244 189.967,516.084C191.604,519.924 195.376,522.417 199.55,522.417L324.53,522.417C327.366,522.417 330.08,521.26 332.044,519.214L582.004,258.839Z"/>
    <g transform="matrix(3.1245,0,0,2.60375,-737.8,-789.875)">
        <path d="M320,425L340,400L300,400L320,425Z"/>
    </g>
    <path d="M254.526,323.933C256.49,325.979 259.204,327.135 262.04,327.135C264.876,327.135 267.59,325.979 269.554,323.933L332.044,258.839C334.935,255.827 335.749,251.381 334.113,247.541C332.476,243.701 328.705,241.208 324.53,241.208L199.55,241.208C195.376,241.208 191.604,243.701 189.967,247.541C188.331,251.381 189.145,255.827 192.036,258.839L254.526,323.933Z"/>
    <path d="M769.474,700.067C767.51,698.021 764.796,696.865 761.96,696.865C759.124,696.865 756.41,698.021 754.446,700.067L691.956,765.161C689.065,768.173 688.251,772.619 689.887,776.459C691.524,780.299 695.295,782.792 699.47,782.792L824.45,782.792C828.624,782.792 832.396,780.299 834.033,776.459C835.669,772.619 834.855,768.173 831.964,765.161L769.474,700.067Z"/>
    <path d="M831.964,519.214C834.855,516.202 835.669,511.756 834.033,507.916C832.396,504.076 828.624,501.583 824.45,501.583L699.47,501.583C696.634,501.583 693.92,502.74 691.956,504.786L441.996,765.161C439.105,768.173 438.291,772.619 439.927,776.459C441.564,780.299 445.336,782.792 449.51,782.792L574.49,782.792C577.326,782.792 580.04,781.635 582.004,779.589L831.964,519.214Z"/>
</svg>
