<?xml version="1.0" standalone="no"?>
<!DOCTYPE svg PUBLIC "-//W3C//DTD SVG 20010904//EN"
 "http://www.w3.org/TR/2001/REC-SVG-20010904/DTD/svg10.dtd">
<svg version="1.0" xmlns="http://www.w3.org/2000/svg"
 width="700.000000pt" height="700.000000pt" viewBox="0 0 700.000000 700.000000"
 preserveAspectRatio="xMidYMid meet">
<metadata>
Created by potrace 1.14, written by Peter Selinger 2001-2017
</metadata>
<g transform="translate(0.000000,700.000000) scale(0.100000,-0.100000)"
fill="#000000" stroke="none">
<path d="M1314 5324 c-20 -19 -24 -31 -19 -52 7 -30 13 -37 171 -201 62 -64
152 -158 201 -210 79 -82 94 -94 123 -94 36 0 12 -23 385 364 106 110 119 130
110 167 -13 52 -7 51 -493 52 l-453 0 -25 -26z"/>
<path d="M2854 5154 c-104 -108 -214 -222 -244 -253 -65 -68 -420 -438 -500
-521 -30 -32 -102 -107 -160 -167 -142 -148 -508 -529 -545 -568 -99 -103
-115 -125 -111 -151 3 -15 13 -35 22 -45 16 -18 40 -19 474 -19 l457 0 105
108 c58 59 131 134 163 167 55 58 270 283 431 450 42 44 165 172 274 285 108
113 223 232 254 265 149 156 378 394 443 461 82 84 95 117 63 157 l-21 27
-459 0 -458 0 -188 -196z"/>
<path d="M4663 5258 c-50 -51 -120 -123 -155 -159 -34 -37 -144 -151 -243
-254 -99 -103 -206 -215 -239 -249 -32 -33 -140 -146 -240 -249 -99 -104 -210
-219 -245 -255 -60 -64 -108 -114 -380 -398 -64 -66 -206 -214 -316 -329 -269
-280 -271 -282 -505 -526 -113 -117 -244 -254 -292 -304 -47 -49 -113 -117
-145 -151 -209 -218 -463 -482 -493 -513 -102 -105 -122 -133 -115 -160 3 -14
15 -34 27 -44 19 -16 56 -17 472 -17 l451 0 25 23 c20 19 298 307 450 467 19
20 127 133 240 250 113 117 228 236 255 265 28 29 134 140 236 246 103 107
217 226 254 264 63 66 360 376 470 490 206 215 421 438 460 480 27 28 136 142
244 253 108 112 219 227 246 256 28 29 136 142 240 250 187 195 238 249 302
317 43 46 49 84 18 115 l-24 24 -454 0 -454 0 -90 -92z"/>
<path d="M4648 3463 c-59 -60 -127 -130 -153 -158 -26 -27 -131 -137 -233
-244 -103 -107 -211 -219 -241 -250 -64 -67 -186 -194 -467 -487 -116 -120
-260 -270 -320 -332 -256 -266 -253 -262 -217 -310 l20 -27 460 -3 460 -2 196
202 c107 112 216 226 242 253 26 28 137 142 245 255 109 113 223 232 255 265
76 80 217 227 468 487 304 315 327 341 337 365 10 25 5 49 -18 76 -14 16 -49
17 -472 17 l-457 0 -105 -107z"/>
<path d="M5184 2229 c-10 -4 -107 -98 -214 -210 -107 -111 -208 -216 -223
-232 -40 -41 -46 -81 -17 -112 l23 -25 453 0 c415 0 454 1 473 18 12 9 24 29
26 44 5 28 -23 66 -123 167 -20 21 -104 108 -186 193 -144 152 -172 173 -212
157z"/>
</g>
</svg>
